<?xml version="1.0" encoding="UTF-8" standalone="no"?>
<!DOCTYPE svg PUBLIC "-//W3C//DTD SVG 1.1//EN" "http://www.w3.org/Graphics/SVG/1.1/DTD/svg11.dtd">
<svg width="100%" height="100%" viewBox="0 0 1817 834" version="1.1" xmlns="http://www.w3.org/2000/svg" xmlns:xlink="http://www.w3.org/1999/xlink" xml:space="preserve" xmlns:serif="http://www.serif.com/" style="fill-rule:evenodd;clip-rule:evenodd;stroke-linejoin:round;stroke-miterlimit:2;">
    <g transform="matrix(1,0,0,1,-517.985125,-301.179736)">
        <g transform="matrix(2.75,0,0,2.75,0,0)">
            <path d="M459.906,234.021C466.142,239.305 466.194,239.123 467.334,240.616C482.088,259.943 478.007,275.517 479.54,277.475C481.213,279.614 500.242,266.692 509.865,253.776C530.496,226.082 544.721,221.754 547.399,220.225C590.03,203.06 595.138,229.532 600.113,224.265C604.481,215.909 606.646,206.053 607.007,204.411C609.209,194.388 630.71,136.358 631.019,135.364C643.088,96.626 675.019,106.911 672.762,130.538C672.28,135.58 612.164,281.957 617.224,317.549C620.438,340.149 651.152,295.03 654.533,283.511C660.555,262.993 658.109,255.957 681.217,226.288C696.145,207.122 733.529,181.705 762.667,206.271C765.928,209.02 767.5,203.627 771.772,196.653C775.531,190.514 787.274,187.353 793.612,190.235C813.229,199.156 803.253,216.802 793.945,239.67C790.47,248.209 766.778,311.37 786.658,304.938C801.281,300.207 814.521,274.746 819.187,266.32C826.443,253.215 840.475,257.613 842.174,258.952C856.357,270.135 845.699,288.352 832.201,306.275C829.348,310.063 809.003,337.076 783.457,340.014C758.79,342.851 748.869,323.481 747.374,320.562C743.578,313.152 743.327,323.952 725.894,336.968C687.421,365.695 663.381,332.652 663.378,332.648C660.85,330.116 651.67,344.934 641.267,351.123C599.079,376.223 584.527,338.071 583.404,337.744C580.384,336.865 554.602,383.219 515.311,366.893C498.038,358.393 494.936,346.441 492.622,336.484C491.065,327.333 490.468,325.951 491.679,308.509C492.015,303.661 488.529,307.701 480.699,310.964C471.684,314.721 472.949,316.431 469.402,325.465C445.477,386.404 394.802,406.596 363.121,383.989C359.828,381.639 342.152,369.026 343.204,337.511C343.527,327.839 344.376,327.972 344.55,324.491C344.719,321.086 342.601,323.712 325.396,330.287C319.793,332.428 318.871,361.917 281.905,393.959C242.891,427.777 209.347,408.104 198.878,394.224C172.348,359.049 198.959,276.903 245.631,262.915C249.497,261.757 247.672,259.375 259.866,249.945C284.458,230.93 323.246,242.374 329.083,273.588C332.435,291.509 329.229,296.884 334.325,294.145C352.77,284.232 353.165,281.646 358.175,277.228C362.84,272.352 376.996,253.408 388.623,249.918C392.478,248.761 392.178,248.181 398.022,242.024C401.35,238.837 401.28,238.847 401.578,238.587C428.82,214.895 454.137,229.453 459.906,234.021ZM294.092,301.445C294.288,299.771 295.88,286.204 293.824,280.383C292.184,275.744 289.071,274.792 288.469,274.608C272.675,269.777 267.926,298.731 284.445,302.705C292.123,304.552 293.189,304.687 294.092,301.445ZM432.474,259.238C416.673,263.184 415.475,287.985 440.499,289.032C442.16,289.101 446.944,289.301 443.624,268.481C442.169,259.353 433.633,259.252 432.474,259.238ZM701.503,309.123C715.958,307.079 723.77,293.95 734.134,276.277C734.604,275.475 734.356,275.374 738.655,265.568C746.649,247.334 746.368,239.501 743.044,232.747C739.357,225.254 712.967,228.754 695.449,273.481C691.384,283.861 691.184,295.816 692.252,299.566C695.168,309.798 699.145,308.734 701.503,309.123ZM277.176,346.288C281.184,339.079 281.19,339.142 281.504,338.502C284.151,333.109 279.553,335.121 273.52,333.438C255.805,328.497 249.963,319.982 243.677,309.335C240.841,304.532 226.443,336.348 227.061,354.509C228.386,393.443 264.009,370.131 277.176,346.288ZM419.069,342.167C424.368,335.114 435.784,321.8 429.576,320.264C411.189,315.717 406.494,313.611 395.767,299.315C393.987,296.942 393.371,295.137 391.76,297.689C381.955,313.224 368.806,363.919 400.529,355.596C401.222,355.414 401.102,355.283 408.579,351.651C410.766,350.588 418.274,342.973 419.069,342.167ZM528.885,312.524C528.874,313.851 528.707,315.173 528.696,316.499C528.494,340.505 546.43,331.437 551.093,326.119C567.396,307.525 567.02,304.859 573.208,292.357C580.442,277.743 590.416,243.431 566.544,249.693C556.846,252.237 546.903,265.788 546.458,266.466C533.005,286.97 530.408,300.482 528.885,312.524Z" style="fill:#272725;"/>
        </g>
    </g>
</svg>
